# xmcd
#
# Track frame offsets:
#	150
#	13965
#	33264
#	49324
#	65854
#	80300
#	94842
#	111846
#	133859
#	147266
#	164487
#	183439
#	195619
#	212396
#	234020
#	251488
#	265388
#	287106
#	305109
#	318874
#	335634
#
# Disc length: 4685 seconds
#
# Revision: 0
# Processed by: cddbd v1.5PL3 Copyright (c) Steve Scherf et al.
# Submitted via: audiograbber 1.82.02
#
DISCID=3b124b15
DTITLE=Generation Hit - 2003
DYEAR=2003
DGENRE=rock
TTITLE0=Piste  
TTITLE1=Piste  
TTITLE2=piste
TTITLE3=pi
TTITLE4=pi
TTITLE5=Piste  
TTITLE6=Piste 
TTITLE7=Pink - Family Portrait
TTITLE8=Piste 
TTITLE9=Piste 
TTITLE10=Piste 
TTITLE11=Piste 
TTITLE12=Piste 
TTITLE13=Piste 
TTITLE14=Piste 
TTITLE15=Piste 
TTITLE16=Piste
TTITLE17=Piste 
TTITLE18=Piste 
TTITLE19=Piste 
TTITLE20=Piste 
EXTD=
EXTT0=
EXTT1=
EXTT2=
EXTT3=
EXTT4=
EXTT5=
EXTT6=
EXTT7=
EXTT8=
EXTT9=
EXTT10=
EXTT11=
EXTT12=
EXTT13=
EXTT14=
EXTT15=
EXTT16=
EXTT17=
EXTT18=
EXTT19=
EXTT20=
PLAYORDER=
